<svg xmlns="http://www.w3.org/2000/svg" xml:space="preserve" viewBox="0 0 640 1600"><path fill="#F7F7F7" d="M1 512V1.028h639.936v1599.819H1zm267.343 762.94-72.56 72.892 72.615 72.193-71.816 71.181 75.058 75.186c24.69-24.587 49.67-49.461 75.319-75l-72.793-71.585 72.833-72.373c-1.393-1.488-2.482-2.718-3.64-3.879-10-10.024-19.986-20.062-30.025-30.047-13.101-13.032-26.246-26.02-39.381-40.024v-189.687c1.578.777 2.355 1.054 3.018 1.501 30.48 20.545 61.443 40.416 91.266 61.874 25.22 18.145 47.47 39.778 65.642 65.262 18.56 26.028 29.943 54.723 31.998 86.81 1.973 30.81-4.033 60.275-18.69 87.218-16.738 30.766-35.277 60.55-53.016 90.772-.587 1-.978 2.116-1.842 4.019 1.959-.41 3.03-.336 3.695-.82 4.947-3.6 10.051-7.037 14.663-11.037 16.848-14.61 35.174-27.946 49.906-44.47 27.24-30.555 46.821-66.096 59.34-105.293 9.451-29.586 12.992-59.86 8.664-90.62-4.452-31.64-17.14-60.292-34.953-86.649-21.3-31.517-49.058-56.686-80.378-77.648-34.825-23.308-70.647-45.122-105.963-67.698-25.51-16.306-50.901-32.796-76.117-49.874l23.343-76.591c1.46.867 2.605 1.467 3.666 2.191 11.108 7.576 22.255 15.096 33.285 22.784 10.897 7.595 22.325 14.605 32.36 23.223 19.103 16.408 31.968 37.617 42.029 60.416 6.26 14.186 11.362 28.885 17.084 43.611 3.796-6.813 8.003-13.736 11.613-20.957 11.724-23.454 18.32-48.177 15.09-74.512-5.054-41.223-27.85-71.52-61.397-94.068-25.324-17.02-51.524-32.737-77.332-49.038-16.48-10.41-32.587-21.293-45.445-36.241-13.252-15.406-22.156-32.582-21.464-53.562.097-2.935.66-5.855 1.006-8.782l-1.159-.422c-5.149 8.282-10.715 16.338-15.366 24.891-11.652 21.427-18.396 44.203-14.327 68.762 4.467 26.951 18.426 48.393 40.739 64.204 11.626 8.238 23.493 16.136 35.266 24.199-7.839 26.141-15.565 51.908-23.97 77.622-15.604-11.607-32.087-22.214-46.65-35.006-46.381-40.744-69.345-91.642-63.677-154.132.237-2.619.255-5.257.415-8.777-21.566 32.47-33.553 67.08-38.556 104.392-4.767 35.544 3.308 67.459 24.201 96.557 17.492 24.36 39.07 44.498 62.559 62.767 31.976 24.872 66.443 46.043 100.847 67.288 2.484 1.534 3.76 3.04 3.753 6.197-.116 63.492-.105 126.984-.756 190.78m92.64-1214.427c-12.997-2.595-25.888-6.538-39.008-7.557-64.468-5.011-117.235 17.863-156.294 69.57-32.44 42.944-49.647 92.08-54.787 145.545-2.538 26.394-.89 52.53 5.204 78.303 12.274 51.903 37.21 96.847 76.947 132.527 32.953 29.589 67.392 57.521 101.123 86.246 36.01 30.666 72.366 60.943 107.812 92.25 28.71 25.356 53.747 54.093 72.704 87.698 21.548 38.197 32.562 79.638 38.557 122.785 6.935 49.915 6.88 99.939 3.957 150.08-.288 4.944-.039 9.92-.039 14.88l1.316.352c6.227-12.296 13.503-24.184 18.478-36.967 13.568-34.862 22.172-70.976 24.156-108.499 1.47-27.797 2.244-55.618-1.494-83.272-4.579-33.866-15.14-66-30.371-96.534-39.31-78.804-97-142.11-166.604-194.904-31.29-23.732-63.811-45.793-93.522-71.639-37.363-32.503-69.407-69.377-95.057-111.767-16.362-27.04-26.18-55.518-23.477-87.967 2.11-25.337 5.45-50.212 14.499-74.035 12.407-32.666 31.87-59.932 62.515-77.864C260.23 70.65 295.633 64.888 332.87 69.882c36.363 4.878 68.01 19.967 93.202 46.668 42.224 44.755 54.847 99.666 52.32 159.327-.302 7.118-.913 14.223-1.38 21.334l1.199.18c1.045-4.623 2.222-9.22 3.114-13.87 9.836-51.252 2.426-99.808-24.432-144.661-22.27-37.192-53.372-64.322-95.91-78.347m87.403 741.615c-7.975-27.678-22.305-51.166-44.85-69.542-30.762-25.074-64.356-45.822-98.689-65.478-13.203-7.56-25.416-16.405-35.843-27.538-17.44-18.619-27.785-40.347-28.179-66.193-.096-6.347.665-12.707 1.032-19.061l-1.093-.533c-5.09 8.437-10.533 16.684-15.204 25.347-14.03 26.018-23.051 53.288-18.5 83.415 3.72 24.623 15.124 45.044 35.692 59.338 38.462 26.73 77.503 52.63 115.856 79.515 9.121 6.394 17.451 14.525 24.452 23.22 18.96 23.549 28.873 51.476 35.932 80.468 2.708 11.118 4.588 22.438 6.904 33.954.977-1.576 1.901-2.938 2.696-4.371 22.995-41.447 32.618-84.945 19.794-132.541M215.297 196.84c-7.88 17.054-11.913 34.614-9.407 53.664 2.667 20.266 14.947 36.013 33.636 39.834 6.731 1.376 13.87 1.01 20.82.967 4.161-.026 8.317-.965 13.26-1.594-.838 1.781-1.176 2.68-1.657 3.495-5.769 9.774-9.442 20.067-8.742 31.683.36 5.976-.118 12.001.198 17.983.092 1.73 1.627 3.386 2.5 5.075 1.59-1.05 3.72-1.744 4.685-3.206 7.416-11.23 14.09-22.982 21.97-33.865 18.393-25.398 40.925-46.857 65.422-66.29 2.588-2.053 3.674-3.876 3.23-7.45-1.375-11.058-2.07-22.198-3.2-33.288-.165-1.613-1.274-3.13-1.946-4.69-1.56.686-3.34 1.092-4.647 2.105-11.572 8.969-22.936 18.21-34.605 27.048-13.84 10.482-29.053 18.109-46.546 20.203-10.468 1.253-20.972 2.003-30.711-3.473-9.883-5.557-12.22-12.188-7.842-22.519 4.715-11.125 11.865-20.392 21.708-27.447 8.254-5.915 17.078-7.071 26.192-2.117 4.949 2.69 9.768 5.652 14.453 8.78 2.933 1.958 4.201 1.756 5.105-1.898 2.07-8.364 2.866-16.764.596-25.11-3.369-12.392-10.906-24.211-30.014-23.76-8.796.208-16.556 3.28-23.64 8.208-13.609 9.468-23.006 22.444-30.818 37.662m270.949 125.458c-1.165-1.184-2.242-2.473-3.51-3.534-9.48-7.936-22.817-8.692-32.906-1.918-9.976 6.697-14.413 19.269-10.853 30.749 3.663 11.816 14.242 19.7 26.66 19.312 10.42-.325 18.561-5.094 23.408-14.44 5.3-10.222 4.326-20.202-2.8-30.17"/><path fill="#EB1D26" d="M361.35 60.664c42.172 13.874 73.274 41.004 95.544 78.196 26.858 44.853 34.268 93.41 24.432 144.66-.892 4.652-2.07 9.248-3.114 13.87l-1.2-.179c.468-7.11 1.08-14.216 1.38-21.334 2.528-59.661-10.095-114.572-52.319-159.327-25.191-26.701-56.839-41.79-93.202-46.668-37.238-4.994-72.64.767-105.273 19.862-30.645 17.932-50.108 45.198-62.515 77.864-9.049 23.823-12.389 48.698-14.5 74.035-2.702 32.45 7.116 60.927 23.478 87.967 25.65 42.39 57.694 79.264 95.057 111.767 29.71 25.846 62.232 47.907 93.522 71.639 69.604 52.794 127.295 116.1 166.604 194.904 15.23 30.533 25.792 62.668 30.37 96.534 3.74 27.654 2.964 55.475 1.495 83.272-1.984 37.523-10.588 73.637-24.156 108.499-4.975 12.783-12.251 24.671-18.478 36.967l-1.316-.351c0-4.961-.25-9.937.039-14.881 2.922-50.141 2.978-100.165-3.957-150.08-5.995-43.147-17.009-84.588-38.557-122.785-18.957-33.605-43.995-62.342-72.704-87.699-35.446-31.306-71.802-61.583-107.812-92.25-33.73-28.724-68.17-56.656-101.123-86.245-39.736-35.68-64.673-80.624-76.947-132.527-6.095-25.773-7.742-51.909-5.204-78.303 5.14-53.464 22.346-102.601 54.787-145.545 39.06-51.707 91.826-74.581 156.294-69.57 13.12 1.02 26.011 4.962 39.376 7.708"/><path fill="#02A653" d="M230.958 947.814c25.444 16.408 50.836 32.898 76.345 49.204 35.316 22.576 71.138 44.39 105.963 67.698 31.32 20.962 59.078 46.13 80.378 77.648 17.812 26.357 30.5 55.01 34.953 86.648 4.328 30.76.787 61.035-8.663 90.621-12.52 39.197-32.102 74.738-59.341 105.292-14.732 16.525-33.058 29.862-49.906 44.471-4.612 4-9.716 7.437-14.663 11.037-.665.484-1.736.41-3.695.82.864-1.903 1.255-3.018 1.842-4.019 17.739-30.221 36.278-60.006 53.016-90.772 14.657-26.943 20.663-56.408 18.69-87.218-2.055-32.087-13.439-60.782-31.998-86.81-18.172-25.484-40.421-47.117-65.642-65.262-29.823-21.458-60.787-41.33-91.266-61.874-.663-.447-1.44-.724-3.018-1.5 0 63.628 0 126.657-.347 190.256-1.773.574-3.2.578-4.627.582.015-63.492.004-126.984.12-190.476.006-3.156-1.27-4.663-3.753-6.197-34.404-21.245-68.87-42.416-100.847-67.288-23.489-18.269-45.067-38.406-62.559-62.767-20.893-29.098-28.968-61.013-24.201-96.557 5.003-37.313 16.99-71.923 38.556-104.392-.16 3.52-.178 6.158-.415 8.777-5.668 62.49 17.296 113.388 63.677 154.132 14.563 12.792 31.046 23.399 47.147 35.31 1.75 1.081 3.002 1.859 4.254 2.636"/><path fill="#010101" d="M448.583 802.49c12.628 47.234 3.005 90.732-19.99 132.179-.795 1.433-1.72 2.795-2.696 4.371-2.316-11.516-4.196-22.836-6.904-33.954-7.06-28.992-16.971-56.92-35.932-80.468-7-8.695-15.33-16.826-24.452-23.22-38.353-26.885-77.394-52.785-115.856-79.515-20.568-14.294-31.972-34.715-35.692-59.338-4.551-30.127 4.47-57.397 18.5-83.415 4.671-8.663 10.114-16.91 15.204-25.347l1.093.533c-.367 6.354-1.128 12.714-1.032 19.061.394 25.846 10.74 47.574 28.179 66.193 10.427 11.133 22.64 19.978 35.843 27.538 34.333 19.656 67.927 40.404 98.69 65.478 22.544 18.376 36.874 41.864 45.045 69.903"/><path fill="#010101" d="M231.072 947.48c-1.366-.443-2.618-1.22-4.029-2.275 7.569-26.045 15.295-51.812 23.134-77.953-11.773-8.063-23.64-15.961-35.266-24.2-22.313-15.81-36.272-37.252-40.739-64.203-4.07-24.559 2.675-47.335 14.327-68.762 4.651-8.553 10.217-16.609 15.366-24.89l1.159.421c-.347 2.927-.909 5.847-1.006 8.782-.692 20.98 8.212 38.156 21.464 53.562 12.858 14.948 28.965 25.831 45.445 36.24 25.808 16.302 52.008 32.02 77.332 49.04 33.548 22.547 56.343 52.844 61.397 94.067 3.23 26.335-3.366 51.058-15.09 74.512-3.61 7.221-7.817 14.144-11.613 20.957-5.722-14.726-10.824-29.425-17.084-43.611-10.061-22.8-22.926-44.008-42.03-60.416-10.034-8.618-21.462-15.628-32.36-23.223-11.029-7.688-22.176-15.208-33.284-22.784-1.06-.724-2.206-1.324-3.666-2.191-7.858 25.781-15.6 51.186-23.457 76.926"/><path fill="#EA1E27" d="M215.495 196.521c7.614-14.9 17.011-27.875 30.62-37.343 7.084-4.927 14.844-8 23.64-8.208 19.108-.451 26.645 11.368 30.014 23.76 2.27 8.346 1.474 16.746-.596 25.11-.904 3.654-2.172 3.856-5.105 1.898-4.685-3.128-9.504-6.09-14.453-8.78-9.114-4.954-17.938-3.798-26.192 2.117-9.843 7.055-16.993 16.322-21.708 27.447-4.379 10.33-2.04 16.962 7.842 22.519 9.74 5.476 20.243 4.726 30.711 3.473 17.493-2.094 32.706-9.721 46.546-20.203 11.67-8.838 23.033-18.079 34.605-27.048 1.307-1.013 3.086-1.419 4.647-2.106.672 1.561 1.78 3.078 1.945 4.69 1.132 11.091 1.826 22.231 3.2 33.288.445 3.575-.641 5.398-3.229 7.45-24.497 19.434-47.03 40.893-65.422 66.291-7.88 10.883-14.554 22.636-21.97 33.865-.966 1.462-3.095 2.156-4.685 3.206-.873-1.69-2.408-3.344-2.5-5.075-.316-5.982.163-12.007-.198-17.983-.7-11.616 2.973-21.909 8.742-31.683.481-.815.819-1.714 1.656-3.495-4.942.629-9.098 1.568-13.26 1.594-6.95.043-14.088.409-20.819-.967-18.69-3.821-30.97-19.568-33.636-39.834-2.506-19.05 1.527-36.61 9.605-53.983"/><path fill="#DD2E37" d="M268.661 1274.788c1.745-.156 3.172-.16 4.95-.235 13.477 12.935 26.622 25.923 39.723 38.955 10.039 9.985 20.026 20.023 30.025 30.047 1.158 1.161 2.247 2.39 3.64 3.88l-72.833 72.372 72.793 71.585-75.32 75c-24.646-24.69-49.63-49.715-75.057-75.186l71.816-71.181-72.615-72.193c24.48-24.593 48.52-48.743 72.878-73.044m-25.397 257.447 26.865 27.4 68.262-67.68-66.664-66.73-68.133 67.689c12.948 12.824 26.066 25.817 39.67 39.321m73.266-208.265-44.019-44.187-67.605 67.175 67.108 67.305 67.68-67.546c-7.51-7.373-15.087-14.81-23.164-22.747"/><path fill="#EA1E27" d="M486.465 322.583c6.906 9.682 7.88 19.662 2.58 29.884-4.847 9.346-12.989 14.115-23.408 14.44-12.418.387-22.997-7.496-26.66-19.312-3.56-11.48.877-24.052 10.853-30.75 10.089-6.773 23.426-6.017 32.906 1.92 1.268 1.06 2.345 2.35 3.73 3.818"/><path fill="#F5F5F3" d="M243.02 1531.98c-13.36-13.25-26.478-26.242-39.426-39.066l68.133-67.69 66.664 66.731-68.262 67.68c-8.345-8.511-17.605-17.955-27.108-27.656m50.688-24.77 14.769-14.502-36.812-36.64-36.44 35.96 37.06 37.048z"/><path fill="#F7F3F4" d="M316.78 1324.22c7.827 7.687 15.403 15.124 22.914 22.497l-67.68 67.546-67.108-67.305 67.605-67.175zm-22.993 38.068 14.501-14.71-36.865-36.672-36.442 35.995 36.945 37.425c7.06-7.118 14.21-14.328 21.86-22.038"/><path fill="#04A553" d="m293.46 1507.461-21.173 21.614-37.06-37.048 36.44-35.96 36.81 36.64c-4.847 4.76-9.807 9.631-15.016 14.754"/><path fill="#030303" d="m293.538 1362.538-21.611 21.788-36.945-37.425 36.442-35.995 36.865 36.671z"/></svg>