<svg width="333" height="82" viewBox="0 0 333 82" fill="none" xmlns="http://www.w3.org/2000/svg">
<rect width="332" height="82" transform="translate(0.5)" fill="white"/>
<path d="M16.8734 3.10906C18.7843 3.8201 20.1937 5.21051 21.2028 7.1166C22.4198 9.41532 22.7555 11.9039 22.3098 14.5304C22.2694 14.7688 22.216 15.0044 22.1687 15.2413L22.1144 15.2321C22.1356 14.8677 22.1633 14.5035 22.1769 14.1387C22.2914 11.0811 21.7195 8.26691 19.8062 5.97321C18.6647 4.60479 17.2307 3.83148 15.583 3.58148C13.8956 3.32554 12.2915 3.62079 10.8128 4.59941C9.42418 5.51842 8.54227 6.9158 7.98008 8.58994C7.57004 9.81086 7.4187 11.0857 7.32304 12.3842C7.20061 14.0473 7.64549 15.5067 8.38689 16.8925C9.54916 19.065 11.0012 20.9548 12.6942 22.6206C14.0404 23.9452 15.514 25.0758 16.9319 26.2921C20.0858 28.9978 22.6999 32.2422 24.4811 36.2809C25.1712 37.8457 25.6498 39.4927 25.8573 41.2283C26.0267 42.6456 25.9916 44.0714 25.925 45.496C25.8351 47.419 25.4452 49.2699 24.8304 51.0566C24.605 51.7117 24.2753 52.3209 23.9931 52.9511L23.9335 52.9331C23.9335 52.6789 23.9222 52.4239 23.9353 52.1705C24.0677 49.6007 24.0702 47.037 23.756 44.4789C23.4843 42.2676 22.9853 40.1437 22.0089 38.1861C21.1499 36.4639 20.0153 34.9911 18.7145 33.6916C17.1083 32.0871 15.4609 30.5354 13.8292 28.9638C12.3008 27.4917 10.7403 26.0601 9.2471 24.5437C7.44657 22.7151 6.31661 20.4117 5.76044 17.7517C5.48426 16.4308 5.40963 15.0914 5.52464 13.7387C5.75754 10.9986 6.53719 8.48036 8.00717 6.27948C9.77708 3.6295 12.168 2.45721 15.0892 2.71402C15.6837 2.7663 16.2679 2.96832 16.8735 3.10906" fill="#EB1D26"/>
<path d="M10.9658 48.5756C12.1187 49.4165 13.2693 50.2616 14.4252 51.0973C16.0254 52.2543 17.6486 53.3722 19.2266 54.5668C20.6458 55.6411 21.9036 56.931 22.8687 58.5462C23.6758 59.897 24.2508 61.3655 24.4525 62.987C24.6487 64.5634 24.4882 66.115 24.06 67.6313C23.4927 69.6401 22.6054 71.4616 21.3711 73.0275C20.7036 73.8744 19.8732 74.5579 19.1097 75.3066C18.9008 75.5116 18.6695 75.6878 18.4453 75.8723C18.4152 75.8971 18.3667 75.8933 18.2779 75.9143C18.317 75.8168 18.3348 75.7596 18.3614 75.7083C19.1652 74.1595 20.0052 72.633 20.7636 71.0563C21.4278 69.6754 21.6999 68.1654 21.6105 66.5863C21.5174 64.9419 21.0016 63.4713 20.1606 62.1373C19.3372 60.8313 18.3291 59.7226 17.1862 58.7927C15.8349 57.6929 14.4318 56.6745 13.0507 55.6216C13.0207 55.5987 12.9855 55.5845 12.914 55.5447C12.914 58.8057 12.914 62.0359 12.8983 65.2954C12.8179 65.3248 12.7533 65.325 12.6886 65.3252C12.6893 62.0712 12.6888 58.8173 12.694 55.5633C12.6943 55.4015 12.6365 55.3243 12.524 55.2457C10.965 54.1569 9.4033 53.0719 7.95435 51.7972C6.89 50.8609 5.91225 49.8289 5.11964 48.5804C4.17293 47.0891 3.80703 45.4535 4.02303 43.6318C4.24973 41.7195 4.79289 39.9458 5.7701 38.2817C5.76285 38.4621 5.76204 38.5973 5.7513 38.7316C5.49447 41.9342 6.53502 44.5427 8.63666 46.6308C9.29655 47.2864 10.0434 47.83 10.773 48.4405C10.8523 48.4959 10.909 48.5357 10.9658 48.5756Z" fill="#02A653"/>
<path d="M20.8259 41.1276C21.3982 43.5483 20.9621 45.7776 19.9201 47.9018C19.8841 47.9752 19.8422 48.045 19.798 48.1258C19.693 47.5356 19.6079 46.9554 19.4851 46.3856C19.1652 44.8998 18.7161 43.4685 17.857 42.2616C17.5398 41.816 17.1623 41.3993 16.749 41.0716C15.0111 39.6938 13.2421 38.3664 11.4993 36.9965C10.5673 36.2639 10.0505 35.2173 9.88198 33.9554C9.67576 32.4114 10.0845 31.0138 10.7203 29.6804C10.9319 29.2364 11.1785 28.8137 11.4092 28.3813L11.4587 28.4087C11.4421 28.7343 11.4076 29.0603 11.412 29.3855C11.4298 30.7101 11.8986 31.8237 12.6888 32.7779C13.1613 33.3485 13.7147 33.8018 14.313 34.1893C15.8687 35.1966 17.3909 36.26 18.7848 37.545C19.8064 38.4868 20.4557 39.6906 20.8259 41.1276Z" fill="black"/>
<path d="M10.9702 48.5585C10.9083 48.5358 10.8515 48.4959 10.7876 48.4419C11.1306 47.1071 11.4807 45.7865 11.8359 44.4468C11.3024 44.0335 10.7647 43.6288 10.2379 43.2065C9.22681 42.3963 8.59429 41.2974 8.39188 39.9161C8.20746 38.6575 8.51309 37.4902 9.04107 36.3921C9.25182 35.9537 9.50403 35.5409 9.73734 35.1165L9.78986 35.138C9.77414 35.288 9.74867 35.4377 9.74428 35.5881C9.71292 36.6633 10.1164 37.5436 10.7169 38.3332C11.2995 39.0992 12.0293 39.657 12.7761 40.1905C13.9455 41.0259 15.1327 41.8315 16.2802 42.7038C17.8003 43.8593 18.8332 45.412 19.0623 47.5247C19.2086 48.8744 18.9097 50.1414 18.3785 51.3434C18.2149 51.7135 18.0243 52.0683 17.8523 52.4175C17.593 51.6628 17.3618 50.9094 17.0782 50.1824C16.6223 49.0139 16.0393 47.927 15.1737 47.0861C14.719 46.6444 14.2012 46.2852 13.7074 45.8959C13.2076 45.5019 12.7025 45.1165 12.1992 44.7282C12.1511 44.6911 12.0992 44.6604 12.0331 44.6159C11.677 45.9372 11.3262 47.2393 10.9702 48.5585Z" fill="black"/>
<path d="M10.2646 10.0717C10.6096 9.30808 11.0354 8.64311 11.6521 8.15787C11.9731 7.90536 12.3247 7.74787 12.7233 7.73721C13.5891 7.7141 13.9306 8.31982 14.0833 8.95491C14.1861 9.38265 14.1501 9.81315 14.0563 10.2418C14.0153 10.4291 13.9578 10.4394 13.8249 10.3391C13.6127 10.1788 13.3943 10.027 13.17 9.8891C12.7571 9.63521 12.3572 9.69445 11.9832 9.99759C11.5372 10.3592 11.2132 10.8341 10.9996 11.4043C10.8012 11.9337 10.9071 12.2736 11.3549 12.5584C11.7963 12.839 12.2722 12.8006 12.7465 12.7363C13.5392 12.629 14.2285 12.2381 14.8556 11.7009C15.3844 11.248 15.8993 10.7744 16.4237 10.3147C16.4829 10.2628 16.5635 10.242 16.6342 10.2068C16.6647 10.2868 16.7149 10.3645 16.7224 10.4472C16.7737 11.0156 16.8051 11.5865 16.8674 12.1532C16.8875 12.3364 16.8383 12.4298 16.721 12.535C15.611 13.531 14.59 14.6307 13.7566 15.9324C13.3996 16.4902 13.0971 17.0925 12.7611 17.668C12.7173 17.7429 12.6209 17.7785 12.5488 17.8323C12.5093 17.7457 12.4397 17.6609 12.4355 17.5722C12.4212 17.2656 12.4429 16.9568 12.4266 16.6506C12.3948 16.0552 12.5613 15.5277 12.8227 15.0268C12.8445 14.985 12.8598 14.939 12.8977 14.8477C12.6738 14.8799 12.4855 14.928 12.2969 14.9294C11.9819 14.9316 11.6585 14.9503 11.3535 14.8798C10.5066 14.684 9.95018 13.877 9.82938 12.8383C9.71583 11.862 9.89857 10.9621 10.2646 10.0717Z" fill="#EB1D26"/>
<path d="M12.6734 65.3328C12.7524 65.3248 12.8171 65.3246 12.8977 65.3208C13.5084 65.9837 14.104 66.6494 14.6976 67.3172C15.1525 67.829 15.6051 68.3434 16.0581 68.8572C16.1106 68.9167 16.1599 68.9796 16.2231 69.056L12.9228 72.7651L16.2213 76.4338L12.8083 80.2775C11.6915 79.0122 10.5595 77.7297 9.4073 76.4243L12.6615 72.7762L9.37109 69.0764C10.4803 67.816 11.5697 66.5783 12.6734 65.3328ZM11.5226 78.527L12.7399 79.9313L15.833 76.4627L12.8123 73.0427L9.72503 76.5118C10.3117 77.169 10.9061 77.8349 11.5226 78.527ZM14.8424 67.8534L12.8478 65.5888L9.78448 69.0316L12.8253 72.4809L15.8921 69.0192C15.5518 68.6413 15.2084 68.2602 14.8424 67.8534Z" fill="#EB1D26"/>
<path d="M22.5429 16.5324C22.8558 17.0286 22.9 17.54 22.6598 18.0639C22.4402 18.5429 22.0712 18.7873 21.5991 18.804C21.0364 18.8238 20.5571 18.4198 20.3911 17.8142C20.2298 17.2259 20.4308 16.5816 20.8829 16.2383C21.34 15.8912 21.9444 15.9299 22.3739 16.3367C22.4314 16.391 22.4801 16.4571 22.5429 16.5324Z" fill="#EB1D26"/>
<path d="M11.5121 78.514C10.9067 77.8349 10.3123 77.1691 9.72559 76.5118L12.8129 73.0427L15.8336 76.4627L12.7405 79.9313C12.3623 79.4951 11.9427 79.0111 11.5121 78.5139M13.8089 77.2445L14.4781 76.5012L12.8101 74.6234L11.1589 76.4664L12.8382 78.3651L13.8089 77.2445Z" fill="white"/>
<path d="M14.8544 67.8663C15.2091 68.2602 15.5524 68.6414 15.8927 69.0192L12.826 72.481L9.78516 69.0316L12.8485 65.5889L14.8544 67.8663ZM13.8126 69.8172L14.4697 69.0634L12.7992 67.1839L11.1479 69.0287L12.822 70.9467C13.1419 70.5819 13.4659 70.2124 13.8126 69.8172Z" fill="white"/>
<path d="M13.7979 77.2575L12.8385 78.3652L11.1592 76.4665L12.8104 74.6235L14.4783 76.5013C14.2587 76.7453 14.0339 76.9949 13.7979 77.2575" fill="#02A653"/>
<path d="M13.8008 69.83L12.8215 70.9466L11.1475 69.0286L12.7987 67.1838L14.4692 69.0632L13.8008 69.83Z" fill="black"/>
<path d="M82.624 33.828C82.624 33.46 82.656 33.028 82.72 32.532C82.784 32.036 82.904 31.476 83.08 30.852C83.256 30.212 83.52 29.5 83.872 28.716L86.824 29.748C86.648 30.244 86.496 30.7 86.368 31.116C86.24 31.516 86.144 31.892 86.08 32.244C86.016 32.58 85.984 32.916 85.984 33.252C85.984 33.972 86.16 34.596 86.512 35.124C86.88 35.668 87.376 36.084 88 36.372C88.64 36.676 89.376 36.828 90.208 36.828C91.568 36.828 92.608 36.604 93.328 36.156C94.064 35.724 94.56 35.036 94.816 34.092C95.088 33.132 95.192 31.892 95.128 30.372L94.648 16.932H98.032L98.392 28.284C98.424 29.084 98.536 29.7 98.728 30.132C98.92 30.564 99.216 30.86 99.616 31.02C100.032 31.18 100.568 31.26 101.224 31.26C101.832 31.26 102.264 31.42 102.52 31.74C102.776 32.044 102.904 32.428 102.904 32.892C102.904 33.388 102.736 33.804 102.4 34.14C102.064 34.46 101.592 34.62 100.984 34.62C100.632 34.62 100.256 34.572 99.856 34.476C99.456 34.38 99.072 34.228 98.704 34.02C98.336 33.812 98.016 33.54 97.744 33.204C97.472 32.852 97.288 32.42 97.192 31.908L98.488 31.26C98.488 32.876 98.296 34.244 97.912 35.364C97.544 36.484 97 37.388 96.28 38.076C95.576 38.764 94.704 39.26 93.664 39.564C92.64 39.884 91.456 40.044 90.112 40.044C89.088 40.044 88.12 39.916 87.208 39.66C86.312 39.404 85.52 39.02 84.832 38.508C84.144 37.996 83.6 37.348 83.2 36.564C82.816 35.796 82.624 34.884 82.624 33.828ZM100.984 34.62L101.224 31.26C101.8 31.26 102.296 31.204 102.712 31.092C103.128 30.98 103.48 30.756 103.768 30.42C104.056 30.068 104.296 29.556 104.488 28.884C104.696 28.212 104.88 27.316 105.04 26.196L108.184 26.724C108.152 26.964 108.104 27.244 108.04 27.564C107.992 27.884 107.944 28.212 107.896 28.548C107.864 28.868 107.848 29.172 107.848 29.46C107.848 29.748 107.904 30.004 108.016 30.228C108.128 30.452 108.304 30.644 108.544 30.804C108.8 30.948 109.128 31.06 109.528 31.14C109.944 31.22 110.448 31.26 111.04 31.26C111.648 31.26 112.08 31.42 112.336 31.74C112.592 32.044 112.72 32.428 112.72 32.892C112.72 33.388 112.552 33.804 112.216 34.14C111.896 34.46 111.424 34.62 110.8 34.62C110.08 34.62 109.424 34.564 108.832 34.452C108.256 34.34 107.752 34.156 107.32 33.9C106.904 33.628 106.56 33.276 106.288 32.844C106.032 32.396 105.872 31.852 105.808 31.212H106.96C106.672 31.98 106.304 32.596 105.856 33.06C105.424 33.508 104.936 33.844 104.392 34.068C103.848 34.292 103.28 34.436 102.688 34.5C102.112 34.58 101.544 34.62 100.984 34.62ZM107.68 40.188C107.216 40.188 106.816 40.02 106.48 39.684C106.16 39.364 106 38.98 106 38.532C106 38.068 106.16 37.668 106.48 37.332C106.816 36.996 107.216 36.828 107.68 36.828C108.128 36.828 108.512 36.996 108.832 37.332C109.152 37.668 109.312 38.068 109.312 38.532C109.312 38.98 109.152 39.364 108.832 39.684C108.512 40.02 108.128 40.188 107.68 40.188ZM103.528 40.188C103.064 40.188 102.664 40.02 102.328 39.684C102.008 39.364 101.848 38.98 101.848 38.532C101.848 38.068 102.008 37.668 102.328 37.332C102.664 36.996 103.064 36.828 103.528 36.828C103.976 36.828 104.36 36.996 104.68 37.332C105 37.668 105.16 38.068 105.16 38.532C105.16 38.98 105 39.364 104.68 39.684C104.36 40.02 103.976 40.188 103.528 40.188ZM118.869 39.78C117.733 39.78 116.685 39.532 115.725 39.036C114.765 38.556 113.997 37.796 113.421 36.756C112.845 35.732 112.557 34.412 112.557 32.796C112.557 31.372 112.725 30.068 113.061 28.884C113.397 27.684 113.853 26.652 114.429 25.788C115.021 24.908 115.685 24.228 116.421 23.748C117.157 23.268 117.933 23.028 118.749 23.028C119.357 23.028 119.933 23.204 120.477 23.556C121.021 23.892 121.469 24.388 121.821 25.044C122.173 25.7 122.349 26.5 122.349 27.444C122.349 27.956 122.245 28.532 122.037 29.172C121.829 29.812 121.461 30.42 120.933 30.996C120.421 31.556 119.701 32.004 118.773 32.34L119.349 30.444C119.861 30.636 120.413 30.796 121.005 30.924C121.597 31.036 122.213 31.124 122.853 31.188C123.493 31.236 124.117 31.26 124.725 31.26C125.333 31.26 125.765 31.42 126.021 31.74C126.293 32.044 126.429 32.428 126.429 32.892C126.429 33.388 126.261 33.804 125.925 34.14C125.589 34.46 125.109 34.62 124.485 34.62C124.037 34.62 123.525 34.596 122.949 34.548C122.389 34.5 121.837 34.436 121.293 34.356C120.765 34.276 120.317 34.188 119.949 34.092L122.565 33.492C122.933 33.94 123.181 34.436 123.309 34.98C123.453 35.54 123.469 36.1 123.357 36.66C123.261 37.22 123.029 37.732 122.661 38.196C122.309 38.676 121.813 39.06 121.173 39.348C120.549 39.636 119.781 39.78 118.869 39.78ZM110.805 34.62L111.045 31.26C111.317 31.26 111.677 31.26 112.125 31.26C112.589 31.26 112.997 31.26 113.349 31.26L113.613 34.308C113.149 34.404 112.645 34.476 112.101 34.524C111.573 34.588 111.141 34.62 110.805 34.62ZM118.773 36.468C119.093 36.468 119.357 36.412 119.565 36.3C119.773 36.204 119.925 36.06 120.021 35.868C120.133 35.692 120.189 35.492 120.189 35.268C120.189 35.076 120.125 34.86 119.997 34.62C119.869 34.38 119.629 34.172 119.277 33.996C118.925 33.804 118.421 33.708 117.765 33.708C117.525 33.708 117.261 33.724 116.973 33.756C116.701 33.788 116.405 33.836 116.085 33.9C115.765 33.948 115.437 34.012 115.101 34.092L115.221 31.212C115.829 31.164 116.373 31.068 116.853 30.924C117.333 30.764 117.733 30.556 118.053 30.3C118.389 30.028 118.645 29.7 118.821 29.316C118.997 28.932 119.085 28.484 119.085 27.972C119.085 27.716 119.061 27.468 119.013 27.228C118.965 26.972 118.893 26.764 118.797 26.604C118.701 26.428 118.581 26.34 118.437 26.34C118.181 26.34 117.909 26.484 117.621 26.772C117.333 27.06 117.061 27.476 116.805 28.02C116.549 28.548 116.333 29.188 116.157 29.94C115.997 30.676 115.917 31.5 115.917 32.412C115.917 33.18 115.997 33.828 116.157 34.356C116.317 34.868 116.533 35.276 116.805 35.58C117.077 35.9 117.381 36.124 117.717 36.252C118.069 36.396 118.421 36.468 118.773 36.468ZM124.516 34.62L124.756 31.26C125.284 31.26 125.716 31.22 126.052 31.14C126.388 31.044 126.66 30.844 126.868 30.54C127.092 30.22 127.284 29.748 127.444 29.124C127.62 28.484 127.812 27.62 128.02 26.532L131.14 27.108C131.076 27.46 130.988 27.9 130.876 28.428C130.78 28.956 130.732 29.412 130.732 29.796C130.732 30.1 130.788 30.364 130.9 30.588C131.028 30.796 131.236 30.964 131.524 31.092C131.828 31.204 132.244 31.26 132.772 31.26C133.188 31.26 133.54 31.22 133.828 31.14C134.132 31.044 134.388 30.844 134.596 30.54C134.82 30.22 135.012 29.732 135.172 29.076C135.348 28.404 135.516 27.5 135.676 26.364L138.844 26.868C138.78 27.236 138.716 27.628 138.652 28.044C138.588 28.46 138.532 28.844 138.484 29.196C138.436 29.548 138.412 29.836 138.412 30.06C138.412 30.268 138.468 30.468 138.58 30.66C138.708 30.836 138.932 30.98 139.252 31.092C139.588 31.204 140.052 31.26 140.644 31.26C141.364 31.26 141.892 31.108 142.228 30.804C142.58 30.484 142.756 30.004 142.756 29.364C142.756 28.996 142.748 28.604 142.732 28.188C142.716 27.756 142.684 27.276 142.636 26.748C142.604 26.204 142.54 25.588 142.444 24.9L145.54 24.66C145.652 26.036 145.78 27.156 145.924 28.02C146.068 28.884 146.26 29.556 146.5 30.036C146.756 30.5 147.092 30.82 147.508 30.996C147.94 31.172 148.5 31.26 149.188 31.26C149.796 31.26 150.228 31.42 150.484 31.74C150.756 32.044 150.892 32.428 150.892 32.892C150.892 33.388 150.724 33.804 150.388 34.14C150.068 34.46 149.588 34.62 148.948 34.62C148.516 34.62 148.068 34.58 147.604 34.5C147.14 34.436 146.692 34.3 146.26 34.092C145.828 33.868 145.444 33.548 145.108 33.132C144.772 32.716 144.508 32.164 144.316 31.476L144.748 31.62C144.524 32.42 144.22 33.036 143.836 33.468C143.452 33.9 142.98 34.204 142.42 34.38C141.86 34.54 141.188 34.62 140.404 34.62C139.684 34.62 139.044 34.524 138.484 34.332C137.924 34.14 137.476 33.828 137.14 33.396C136.82 32.948 136.652 32.348 136.636 31.596H137.452C137.132 32.492 136.764 33.156 136.348 33.588C135.932 34.02 135.428 34.3 134.836 34.428C134.244 34.556 133.5 34.62 132.604 34.62C132.06 34.62 131.524 34.564 130.996 34.452C130.468 34.324 129.996 34.044 129.58 33.612C129.164 33.164 128.86 32.46 128.668 31.5L129.964 31.452C129.628 32.396 129.188 33.092 128.644 33.54C128.116 33.988 127.508 34.284 126.82 34.428C126.132 34.556 125.364 34.62 124.516 34.62ZM148.961 34.62L149.201 31.26C150.161 31.26 150.897 31.212 151.409 31.116C151.921 31.02 152.273 30.844 152.465 30.588C152.673 30.316 152.777 29.932 152.777 29.436C152.777 28.988 152.713 28.452 152.585 27.828C152.473 27.204 152.321 26.556 152.129 25.884C151.953 25.212 151.761 24.596 151.553 24.036L154.865 23.124C155.073 23.668 155.273 24.3 155.465 25.02C155.657 25.74 155.817 26.484 155.945 27.252C156.073 28.004 156.137 28.732 156.137 29.436C156.137 30.524 155.961 31.412 155.609 32.1C155.257 32.772 154.761 33.292 154.121 33.66C153.497 34.028 152.745 34.284 151.865 34.428C150.985 34.556 150.017 34.62 148.961 34.62ZM155.465 21.18C155.001 21.18 154.601 21.02 154.265 20.7C153.945 20.364 153.785 19.972 153.785 19.524C153.785 19.06 153.945 18.66 154.265 18.324C154.601 17.988 155.001 17.82 155.465 17.82C155.913 17.82 156.297 17.988 156.617 18.324C156.937 18.66 157.097 19.06 157.097 19.524C157.097 19.972 156.937 20.364 156.617 20.7C156.297 21.02 155.913 21.18 155.465 21.18ZM151.313 21.156C150.849 21.156 150.449 20.996 150.113 20.676C149.793 20.34 149.633 19.948 149.633 19.5C149.633 19.036 149.793 18.636 150.113 18.3C150.449 17.964 150.849 17.796 151.313 17.796C151.761 17.796 152.145 17.964 152.465 18.3C152.785 18.636 152.945 19.036 152.945 19.5C152.945 19.948 152.785 20.34 152.465 20.676C152.145 20.996 151.761 21.156 151.313 21.156ZM164.509 40.02L163.813 36.66C164.949 36.516 165.941 36.34 166.789 36.132C167.637 35.94 168.349 35.668 168.925 35.316C169.501 34.964 169.933 34.484 170.221 33.876C170.509 33.252 170.653 32.452 170.653 31.476C170.653 31.124 170.621 30.772 170.557 30.42C170.493 30.052 170.397 29.716 170.269 29.412C170.141 29.108 169.973 28.86 169.765 28.668C169.573 28.476 169.341 28.38 169.069 28.38C168.781 28.38 168.525 28.484 168.301 28.692C168.077 28.884 167.901 29.132 167.773 29.436C167.645 29.724 167.581 30.02 167.581 30.324C167.581 30.548 167.637 30.74 167.749 30.9C167.861 31.044 168.029 31.156 168.253 31.236C168.477 31.3 168.757 31.332 169.093 31.332C169.477 31.332 169.869 31.292 170.269 31.212C170.685 31.116 171.061 30.988 171.397 30.828L171.493 33.444C171.109 33.748 170.669 34.02 170.173 34.26C169.677 34.484 169.077 34.596 168.373 34.596C167.797 34.596 167.261 34.532 166.765 34.404C166.269 34.26 165.829 34.044 165.445 33.756C165.077 33.468 164.789 33.1 164.581 32.652C164.373 32.188 164.269 31.636 164.269 30.996C164.269 30.212 164.397 29.452 164.653 28.716C164.909 27.98 165.261 27.324 165.709 26.748C166.173 26.156 166.701 25.692 167.293 25.356C167.901 25.004 168.541 24.828 169.213 24.828C170.013 24.828 170.709 25.028 171.301 25.428C171.909 25.828 172.413 26.356 172.813 27.012C173.213 27.652 173.517 28.348 173.725 29.1C173.933 29.852 174.037 30.572 174.037 31.26C174.037 33.068 173.653 34.604 172.885 35.868C172.117 37.132 171.021 38.108 169.597 38.796C168.173 39.5 166.477 39.908 164.509 40.02ZM186.587 40.044L185.363 37.068C186.211 36.78 186.987 36.444 187.691 36.06C188.411 35.676 189.035 35.252 189.563 34.788C190.091 34.324 190.499 33.82 190.787 33.276C191.075 32.716 191.219 32.116 191.219 31.476C191.219 30.804 191.067 30.068 190.763 29.268C190.459 28.468 190.091 27.652 189.659 26.82L192.803 25.308C193.091 25.804 193.339 26.34 193.547 26.916C193.771 27.476 193.955 27.98 194.099 28.428C194.243 28.876 194.339 29.18 194.387 29.34C194.611 30.108 194.915 30.62 195.299 30.876C195.699 31.132 196.339 31.26 197.219 31.26C197.827 31.26 198.259 31.42 198.515 31.74C198.787 32.044 198.923 32.428 198.923 32.892C198.923 33.388 198.755 33.804 198.419 34.14C198.083 34.46 197.603 34.62 196.979 34.62C196.323 34.62 195.747 34.524 195.251 34.332C194.755 34.14 194.355 33.86 194.051 33.492C193.763 33.124 193.579 32.692 193.499 32.196L194.387 32.7C194.291 33.548 194.011 34.348 193.547 35.1C193.099 35.868 192.515 36.572 191.795 37.212C191.075 37.852 190.267 38.412 189.371 38.892C188.475 39.372 187.547 39.756 186.587 40.044ZM197.008 34.62L197.248 31.26C197.616 31.26 197.928 31.172 198.184 30.996C198.456 30.804 198.736 30.492 199.024 30.06C199.312 29.612 199.648 29.012 200.032 28.26C200.512 27.3 201.008 26.548 201.52 26.004C202.048 25.46 202.584 25.076 203.128 24.852C203.688 24.612 204.248 24.492 204.808 24.492C205.512 24.492 206.168 24.644 206.776 24.948C207.384 25.252 207.912 25.668 208.36 26.196C208.808 26.708 209.152 27.3 209.392 27.972C209.648 28.628 209.776 29.308 209.776 30.012C209.776 30.86 209.592 31.628 209.224 32.316C208.872 32.988 208.376 33.524 207.736 33.924C207.112 34.308 206.392 34.5 205.576 34.5C204.888 34.5 204.088 34.38 203.176 34.14C202.264 33.9 201.304 33.396 200.296 32.628L201.52 29.724C202.24 30.22 202.912 30.58 203.536 30.804C204.176 31.028 204.704 31.14 205.12 31.14C205.44 31.14 205.704 31.108 205.912 31.044C206.12 30.98 206.272 30.876 206.368 30.732C206.464 30.588 206.512 30.396 206.512 30.156C206.512 29.82 206.432 29.476 206.272 29.124C206.112 28.772 205.896 28.476 205.624 28.236C205.368 27.98 205.064 27.852 204.712 27.852C204.376 27.852 204.088 27.98 203.848 28.236C203.624 28.476 203.4 28.828 203.176 29.292C202.968 29.74 202.712 30.268 202.408 30.876C202.04 31.612 201.68 32.228 201.328 32.724C200.976 33.204 200.6 33.588 200.2 33.876C199.816 34.148 199.36 34.34 198.832 34.452C198.32 34.564 197.712 34.62 197.008 34.62ZM212.849 34.5L212.393 18.612H215.753L216.209 34.5H212.849ZM215.585 16.284C215.105 16.284 214.673 16.204 214.289 16.044C213.905 15.868 213.553 15.7 213.233 15.54C212.913 15.38 212.617 15.3 212.345 15.3C212.057 15.3 211.793 15.372 211.553 15.516C211.329 15.66 211.089 15.86 210.833 16.116L209.705 15.06C210.137 14.516 210.569 14.108 211.001 13.836C211.449 13.564 211.897 13.428 212.345 13.428C212.745 13.428 213.113 13.508 213.449 13.668C213.785 13.828 214.121 13.988 214.457 14.148C214.809 14.308 215.185 14.388 215.585 14.388C215.841 14.388 216.081 14.348 216.305 14.268C216.529 14.172 216.801 14.028 217.121 13.836L217.961 15.156C217.385 15.652 216.905 15.964 216.521 16.092C216.153 16.22 215.841 16.284 215.585 16.284ZM233.247 35.004L233.871 31.644C235.423 31.644 236.775 31.604 237.927 31.524C239.079 31.428 240.031 31.292 240.783 31.116C241.551 30.924 242.119 30.676 242.487 30.372C242.871 30.068 243.063 29.7 243.063 29.268C243.063 28.692 242.967 28.004 242.775 27.204C242.583 26.388 242.335 25.564 242.031 24.732L245.175 23.82C245.383 24.364 245.583 24.964 245.775 25.62C245.967 26.26 246.119 26.908 246.231 27.564C246.359 28.204 246.423 28.804 246.423 29.364C246.423 30.356 246.207 31.212 245.775 31.932C245.343 32.636 244.623 33.22 243.615 33.684C242.623 34.132 241.279 34.46 239.583 34.668C237.887 34.892 235.775 35.004 233.247 35.004ZM233.223 35.004C231.495 35.004 230.031 34.868 228.831 34.596C227.647 34.34 226.679 33.972 225.927 33.492C225.191 32.996 224.655 32.42 224.319 31.764C223.983 31.108 223.815 30.388 223.815 29.604C223.815 29.092 223.855 28.58 223.935 28.068C224.031 27.54 224.143 27.028 224.271 26.532C224.415 26.036 224.543 25.588 224.655 25.188L227.655 25.884C227.591 26.172 227.519 26.484 227.439 26.82C227.359 27.156 227.295 27.484 227.247 27.804C227.199 28.108 227.175 28.388 227.175 28.644C227.175 29.236 227.383 29.764 227.799 30.228C228.231 30.676 228.935 31.028 229.911 31.284C230.887 31.524 232.199 31.644 233.847 31.644L234.327 34.236L233.223 35.004ZM237.183 24.036C236.719 24.036 236.319 23.876 235.983 23.556C235.663 23.22 235.503 22.828 235.503 22.38C235.503 21.916 235.663 21.516 235.983 21.18C236.319 20.844 236.719 20.676 237.183 20.676C237.631 20.676 238.015 20.844 238.335 21.18C238.655 21.516 238.815 21.916 238.815 22.38C238.815 22.828 238.655 23.22 238.335 23.556C238.015 23.876 237.631 24.036 237.183 24.036ZM233.031 24.012C232.567 24.012 232.167 23.852 231.831 23.532C231.511 23.196 231.351 22.804 231.351 22.356C231.351 21.892 231.511 21.492 231.831 21.156C232.167 20.82 232.567 20.652 233.031 20.652C233.479 20.652 233.863 20.82 234.183 21.156C234.503 21.492 234.663 21.892 234.663 22.356C234.663 22.804 234.503 23.196 234.183 23.532C233.863 23.852 233.479 24.012 233.031 24.012ZM255.241 34.62C253.753 34.62 252.601 34.468 251.785 34.164C250.985 33.86 250.425 33.388 250.105 32.748C249.785 32.092 249.601 31.268 249.553 30.276L249.049 16.932H252.409L252.913 28.668C252.945 29.404 253.025 29.956 253.153 30.324C253.281 30.692 253.521 30.94 253.873 31.068C254.241 31.196 254.777 31.26 255.481 31.26C256.089 31.26 256.521 31.42 256.777 31.74C257.049 32.044 257.185 32.428 257.185 32.892C257.185 33.388 257.017 33.804 256.681 34.14C256.345 34.46 255.865 34.62 255.241 34.62ZM255.273 34.62L255.513 31.26C255.881 31.26 256.193 31.172 256.449 30.996C256.721 30.804 257.001 30.492 257.289 30.06C257.577 29.612 257.913 29.012 258.297 28.26C258.777 27.3 259.273 26.548 259.785 26.004C260.313 25.46 260.849 25.076 261.393 24.852C261.953 24.612 262.513 24.492 263.073 24.492C263.777 24.492 264.433 24.644 265.041 24.948C265.649 25.252 266.177 25.668 266.625 26.196C267.073 26.708 267.417 27.3 267.657 27.972C267.913 28.628 268.041 29.308 268.041 30.012C268.041 30.86 267.857 31.628 267.489 32.316C267.137 32.988 266.641 33.524 266.001 33.924C265.377 34.308 264.657 34.5 263.841 34.5C263.153 34.5 262.353 34.38 261.441 34.14C260.529 33.9 259.569 33.396 258.561 32.628L259.785 29.724C260.505 30.22 261.177 30.58 261.801 30.804C262.441 31.028 262.969 31.14 263.385 31.14C263.705 31.14 263.969 31.108 264.177 31.044C264.385 30.98 264.537 30.876 264.633 30.732C264.729 30.588 264.777 30.396 264.777 30.156C264.777 29.82 264.697 29.476 264.537 29.124C264.377 28.772 264.161 28.476 263.889 28.236C263.633 27.98 263.329 27.852 262.977 27.852C262.641 27.852 262.353 27.98 262.113 28.236C261.889 28.476 261.665 28.828 261.441 29.292C261.233 29.74 260.977 30.268 260.673 30.876C260.305 31.612 259.945 32.228 259.593 32.724C259.241 33.204 258.865 33.588 258.465 33.876C258.081 34.148 257.625 34.34 257.097 34.452C256.585 34.564 255.977 34.62 255.273 34.62ZM274.474 31.26C275.194 31.26 275.746 31.196 276.13 31.068C276.514 30.94 276.778 30.772 276.922 30.564C277.066 30.356 277.138 30.132 277.138 29.892C277.138 29.508 277.026 29.06 276.802 28.548C276.594 28.036 276.33 27.5 276.01 26.94C275.69 26.38 275.354 25.844 275.002 25.332C274.666 24.82 274.362 24.372 274.09 23.988L276.946 22.092C277.634 23.02 278.226 23.94 278.722 24.852C279.218 25.748 279.618 26.58 279.922 27.348C280.242 28.116 280.466 28.772 280.594 29.316C280.722 29.828 280.914 30.228 281.17 30.516C281.442 30.788 281.754 30.98 282.106 31.092C282.458 31.204 282.81 31.26 283.162 31.26C283.77 31.26 284.202 31.42 284.458 31.74C284.73 32.044 284.866 32.428 284.866 32.892C284.866 33.388 284.698 33.804 284.362 34.14C284.042 34.46 283.562 34.62 282.922 34.62C282.218 34.62 281.602 34.524 281.074 34.332C280.546 34.14 280.098 33.836 279.73 33.42C279.362 33.004 279.05 32.476 278.794 31.836L280.258 32.148C280.13 32.596 279.834 33.012 279.37 33.396C278.922 33.764 278.322 34.068 277.57 34.308C276.834 34.532 275.962 34.644 274.954 34.644C274.474 34.644 273.938 34.604 273.346 34.524C272.77 34.444 272.194 34.324 271.618 34.164C271.058 34.004 270.546 33.796 270.082 33.54L271.258 30.492C271.85 30.748 272.418 30.94 272.962 31.068C273.522 31.196 274.026 31.26 274.474 31.26ZM282.953 34.62L283.193 31.26C284.057 31.26 284.913 31.212 285.761 31.116C286.609 31.02 287.433 30.876 288.233 30.684C289.033 30.492 289.793 30.244 290.513 29.94C291.249 29.636 291.937 29.268 292.577 28.836C292.097 28.548 291.577 28.3 291.017 28.092C290.457 27.884 289.857 27.732 289.217 27.636C288.593 27.524 287.929 27.468 287.225 27.468C286.969 27.468 286.697 27.476 286.409 27.492C286.137 27.508 285.857 27.54 285.569 27.588C285.281 27.62 284.993 27.668 284.705 27.732L284.225 24.444C284.689 24.316 285.177 24.228 285.689 24.18C286.217 24.116 286.681 24.084 287.081 24.084C287.945 24.084 288.737 24.18 289.457 24.372C290.193 24.564 290.865 24.804 291.473 25.092C292.097 25.38 292.673 25.668 293.201 25.956C293.745 26.244 294.257 26.484 294.737 26.676C295.233 26.868 295.713 26.964 296.177 26.964H297.065L297.449 30.156C296.761 30.188 296.113 30.324 295.505 30.564C294.913 30.788 294.321 31.076 293.729 31.428C293.153 31.764 292.529 32.116 291.857 32.484C291.201 32.852 290.457 33.196 289.625 33.516C288.793 33.836 287.833 34.1 286.745 34.308C285.657 34.516 284.393 34.62 282.953 34.62ZM287.105 21.852C286.609 21.852 286.185 21.684 285.833 21.348C285.497 21.012 285.329 20.596 285.329 20.1C285.329 19.604 285.497 19.18 285.833 18.828C286.185 18.476 286.609 18.3 287.105 18.3C287.585 18.3 287.993 18.476 288.329 18.828C288.681 19.18 288.857 19.604 288.857 20.1C288.857 20.596 288.681 21.012 288.329 21.348C287.993 21.684 287.585 21.852 287.105 21.852Z" fill="url(#paint0_linear_411_514)"/>
<path d="M59.7713 63H56.4759L61.4972 48.4545H65.4602L70.4744 63H67.179L63.5355 51.7784H63.4219L59.7713 63ZM59.5653 57.2827H67.3494V59.6832H59.5653V57.2827ZM72.1683 63V52.0909H75.0518V54.0156H75.1797C75.407 53.3764 75.7857 52.8722 76.3161 52.5028C76.8464 52.1335 77.4808 51.9489 78.2195 51.9489C78.9676 51.9489 79.6044 52.1359 80.13 52.5099C80.6555 52.8793 81.0059 53.3812 81.1811 54.0156H81.2947C81.5173 53.3906 81.9197 52.8911 82.5021 52.517C83.0893 52.1383 83.7829 51.9489 84.5831 51.9489C85.6011 51.9489 86.4273 52.2732 87.0618 52.9219C87.701 53.5658 88.0206 54.4796 88.0206 55.6634V63H85.0021V56.2599C85.0021 55.6539 84.8411 55.1993 84.5192 54.8963C84.1972 54.5933 83.7947 54.4418 83.3118 54.4418C82.7625 54.4418 82.334 54.617 82.0263 54.9673C81.7185 55.313 81.5646 55.7699 81.5646 56.3381V63H78.6314V56.196C78.6314 55.661 78.4775 55.2348 78.1697 54.9176C77.8667 54.6004 77.4666 54.4418 76.9695 54.4418C76.6333 54.4418 76.3303 54.527 76.0604 54.6974C75.7952 54.8632 75.5845 55.0975 75.4283 55.4006C75.272 55.6989 75.1939 56.0492 75.1939 56.4517V63H72.1683ZM95.3821 63.2131C94.2599 63.2131 93.294 62.9858 92.4844 62.5312C91.6795 62.072 91.0592 61.4233 90.6236 60.5852C90.188 59.7424 89.9702 58.7457 89.9702 57.5952C89.9702 56.473 90.188 55.4882 90.6236 54.6406C91.0592 53.7931 91.6723 53.1326 92.4631 52.6591C93.2585 52.1856 94.1913 51.9489 95.2614 51.9489C95.9811 51.9489 96.651 52.0649 97.2713 52.2969C97.8963 52.5241 98.4408 52.8674 98.9048 53.3267C99.3736 53.786 99.7382 54.3636 99.9986 55.0597C100.259 55.7509 100.389 56.5606 100.389 57.4886V58.3196H91.1776V56.4446H97.5412C97.5412 56.009 97.4465 55.6231 97.2571 55.2869C97.0677 54.9508 96.8049 54.688 96.4688 54.4986C96.1373 54.3045 95.7514 54.2074 95.3111 54.2074C94.8518 54.2074 94.4446 54.3139 94.0895 54.527C93.7391 54.7353 93.4645 55.017 93.2656 55.3722C93.0668 55.7225 92.965 56.1132 92.9602 56.544V58.3267C92.9602 58.8665 93.0597 59.3329 93.2585 59.7259C93.4621 60.1188 93.7486 60.4219 94.1179 60.6349C94.4872 60.848 94.9252 60.9545 95.4318 60.9545C95.768 60.9545 96.0758 60.9072 96.3551 60.8125C96.6345 60.7178 96.8736 60.5758 97.0724 60.3864C97.2713 60.197 97.4228 59.965 97.527 59.6903L100.325 59.875C100.183 60.5473 99.892 61.1345 99.4517 61.6364C99.0161 62.1335 98.4527 62.5218 97.7614 62.8011C97.0748 63.0758 96.2817 63.2131 95.3821 63.2131ZM102.364 63V52.0909H105.297V53.9943H105.411C105.609 53.3172 105.943 52.8059 106.412 52.4602C106.881 52.1098 107.42 51.9347 108.031 51.9347C108.183 51.9347 108.346 51.9441 108.521 51.9631C108.696 51.982 108.85 52.008 108.983 52.0412V54.7259C108.841 54.6832 108.644 54.6454 108.393 54.6122C108.143 54.5791 107.913 54.5625 107.705 54.5625C107.259 54.5625 106.862 54.6596 106.511 54.8537C106.166 55.0431 105.891 55.3082 105.688 55.6491C105.489 55.9901 105.389 56.383 105.389 56.8281V63H102.364ZM118.287 63.206C117.591 63.206 116.971 63.0852 116.426 62.8438C115.882 62.5975 115.451 62.2353 115.134 61.7571C114.821 61.2741 114.665 60.6728 114.665 59.9531C114.665 59.3471 114.776 58.8381 114.999 58.4261C115.221 58.0142 115.524 57.6828 115.908 57.4318C116.291 57.1809 116.727 56.9915 117.214 56.8636C117.707 56.7358 118.223 56.6458 118.763 56.5938C119.397 56.5275 119.909 56.4659 120.297 56.4091C120.685 56.3475 120.967 56.2576 121.142 56.1392C121.317 56.0208 121.405 55.8456 121.405 55.6136V55.571C121.405 55.1212 121.263 54.7732 120.979 54.527C120.699 54.2808 120.302 54.1577 119.786 54.1577C119.241 54.1577 118.808 54.2784 118.486 54.5199C118.164 54.7566 117.951 55.0549 117.847 55.4148L115.048 55.1875C115.19 54.5246 115.47 53.9517 115.886 53.4688C116.303 52.9811 116.84 52.607 117.499 52.3466C118.161 52.0814 118.929 51.9489 119.8 51.9489C120.406 51.9489 120.986 52.0199 121.54 52.1619C122.098 52.304 122.593 52.5241 123.024 52.8224C123.46 53.1207 123.803 53.5043 124.054 53.973C124.305 54.437 124.43 54.9934 124.43 55.642V63H121.561V61.4872H121.476C121.301 61.8281 121.066 62.1288 120.773 62.3892C120.479 62.6449 120.126 62.8461 119.714 62.9929C119.303 63.1349 118.827 63.206 118.287 63.206ZM119.153 61.1179C119.598 61.1179 119.991 61.0303 120.332 60.8551C120.673 60.6752 120.941 60.4337 121.135 60.1307C121.329 59.8277 121.426 59.4844 121.426 59.1009V57.9432C121.331 58.0047 121.201 58.0616 121.036 58.1136C120.875 58.161 120.692 58.206 120.489 58.2486C120.285 58.2865 120.081 58.322 119.878 58.3551C119.674 58.3835 119.49 58.4096 119.324 58.4332C118.969 58.4853 118.659 58.5682 118.393 58.6818C118.128 58.7955 117.922 58.9493 117.776 59.1435C117.629 59.3329 117.555 59.5696 117.555 59.8537C117.555 60.2656 117.705 60.5805 118.003 60.7983C118.306 61.0114 118.689 61.1179 119.153 61.1179ZM129.803 56.6932V63H126.778V52.0909H129.661V54.0156H129.789C130.031 53.3812 130.435 52.8793 131.004 52.5099C131.572 52.1359 132.261 51.9489 133.07 51.9489C133.828 51.9489 134.488 52.1146 135.052 52.446C135.615 52.7775 136.053 53.2509 136.366 53.8665C136.678 54.4773 136.835 55.2064 136.835 56.054V63H133.809V56.5938C133.814 55.9261 133.643 55.4053 133.298 55.0312C132.952 54.6525 132.476 54.4631 131.87 54.4631C131.463 54.4631 131.103 54.5507 130.79 54.7259C130.483 54.901 130.241 55.1567 130.066 55.4929C129.896 55.8243 129.808 56.2244 129.803 56.6932ZM143.239 63.1776C142.41 63.1776 141.66 62.9645 140.988 62.5384C140.32 62.1075 139.79 61.4754 139.397 60.642C139.008 59.804 138.814 58.7765 138.814 57.5597C138.814 56.3097 139.016 55.2704 139.418 54.4418C139.82 53.6084 140.355 52.9858 141.023 52.5739C141.695 52.1572 142.432 51.9489 143.232 51.9489C143.843 51.9489 144.352 52.053 144.759 52.2614C145.171 52.465 145.502 52.7206 145.753 53.0284C146.009 53.3314 146.203 53.6297 146.336 53.9233H146.428V48.4545H149.446V63H146.463V61.2528H146.336C146.194 61.5559 145.992 61.8565 145.732 62.1548C145.476 62.4484 145.142 62.6922 144.73 62.8864C144.323 63.0805 143.826 63.1776 143.239 63.1776ZM144.198 60.7699C144.685 60.7699 145.097 60.6373 145.434 60.3722C145.775 60.1023 146.035 59.7259 146.215 59.2429C146.4 58.7599 146.492 58.1941 146.492 57.5455C146.492 56.8968 146.402 56.3333 146.222 55.8551C146.042 55.3769 145.782 55.0076 145.441 54.7472C145.1 54.4867 144.685 54.3565 144.198 54.3565C143.701 54.3565 143.282 54.4915 142.941 54.7614C142.6 55.0312 142.342 55.4053 142.167 55.8835C141.991 56.3617 141.904 56.9157 141.904 57.5455C141.904 58.1799 141.991 58.741 142.167 59.2287C142.346 59.7116 142.605 60.0904 142.941 60.3651C143.282 60.6349 143.701 60.7699 144.198 60.7699ZM156.066 50.9901V48.4545H168.012V50.9901H163.559V63H160.519V50.9901H156.066ZM171.549 63.206C170.853 63.206 170.232 63.0852 169.688 62.8438C169.143 62.5975 168.712 62.2353 168.395 61.7571C168.083 61.2741 167.926 60.6728 167.926 59.9531C167.926 59.3471 168.038 58.8381 168.26 58.4261C168.483 58.0142 168.786 57.6828 169.169 57.4318C169.553 57.1809 169.989 56.9915 170.476 56.8636C170.969 56.7358 171.485 56.6458 172.025 56.5938C172.659 56.5275 173.17 56.4659 173.559 56.4091C173.947 56.3475 174.229 56.2576 174.404 56.1392C174.579 56.0208 174.667 55.8456 174.667 55.6136V55.571C174.667 55.1212 174.525 54.7732 174.24 54.527C173.961 54.2808 173.563 54.1577 173.047 54.1577C172.503 54.1577 172.069 54.2784 171.748 54.5199C171.426 54.7566 171.212 55.0549 171.108 55.4148L168.31 55.1875C168.452 54.5246 168.731 53.9517 169.148 53.4688C169.565 52.9811 170.102 52.607 170.76 52.3466C171.423 52.0814 172.19 51.9489 173.061 51.9489C173.667 51.9489 174.248 52.0199 174.801 52.1619C175.36 52.304 175.855 52.5241 176.286 52.8224C176.721 53.1207 177.065 53.5043 177.316 53.973C177.567 54.437 177.692 54.9934 177.692 55.642V63H174.823V61.4872H174.738C174.562 61.8281 174.328 62.1288 174.034 62.3892C173.741 62.6449 173.388 62.8461 172.976 62.9929C172.564 63.1349 172.088 63.206 171.549 63.206ZM172.415 61.1179C172.86 61.1179 173.253 61.0303 173.594 60.8551C173.935 60.6752 174.203 60.4337 174.397 60.1307C174.591 59.8277 174.688 59.4844 174.688 59.1009V57.9432C174.593 58.0047 174.463 58.0616 174.297 58.1136C174.136 58.161 173.954 58.206 173.75 58.2486C173.547 58.2865 173.343 58.322 173.14 58.3551C172.936 58.3835 172.751 58.4096 172.586 58.4332C172.23 58.4853 171.92 58.5682 171.655 58.6818C171.39 58.7955 171.184 58.9493 171.037 59.1435C170.891 59.3329 170.817 59.5696 170.817 59.8537C170.817 60.2656 170.966 60.5805 171.265 60.7983C171.568 61.0114 171.951 61.1179 172.415 61.1179ZM189.116 55.2017L186.346 55.3722C186.299 55.1354 186.197 54.9223 186.041 54.733C185.885 54.5388 185.679 54.3849 185.423 54.2713C185.172 54.1529 184.871 54.0938 184.521 54.0938C184.052 54.0938 183.657 54.1932 183.335 54.392C183.013 54.5862 182.852 54.8466 182.852 55.1733C182.852 55.4337 182.956 55.6539 183.164 55.8338C183.373 56.0137 183.73 56.1581 184.237 56.267L186.211 56.6648C187.272 56.8826 188.063 57.233 188.583 57.7159C189.104 58.1989 189.365 58.8333 189.365 59.6193C189.365 60.3343 189.154 60.9616 188.733 61.5014C188.316 62.0412 187.743 62.4626 187.014 62.7656C186.289 63.0639 185.454 63.2131 184.507 63.2131C183.063 63.2131 181.912 62.9124 181.055 62.3111C180.203 61.705 179.703 60.8812 179.556 59.8395L182.532 59.6832C182.622 60.1236 182.84 60.4598 183.186 60.6918C183.531 60.919 183.974 61.0327 184.514 61.0327C185.044 61.0327 185.47 60.9309 185.792 60.7273C186.119 60.5189 186.285 60.2514 186.289 59.9247C186.285 59.6501 186.169 59.4252 185.941 59.25C185.714 59.0701 185.364 58.9328 184.89 58.8381L183.001 58.4616C181.936 58.2486 181.143 57.8793 180.622 57.3537C180.106 56.8281 179.848 56.1581 179.848 55.3438C179.848 54.643 180.037 54.0393 180.416 53.5327C180.799 53.026 181.337 52.6354 182.028 52.3608C182.724 52.0862 183.538 51.9489 184.471 51.9489C185.849 51.9489 186.933 52.2401 187.724 52.8224C188.52 53.4048 188.984 54.1979 189.116 55.2017ZM198.067 55.8267V58.2273H191.433V55.8267H198.067ZM203.67 56.6932V63H200.645V48.4545H203.585V54.0156H203.713C203.959 53.3717 204.357 52.8674 204.906 52.5028C205.455 52.1335 206.144 51.9489 206.973 51.9489C207.731 51.9489 208.391 52.1146 208.955 52.446C209.523 52.7727 209.963 53.2438 210.276 53.8594C210.593 54.4702 210.749 55.2017 210.744 56.054V63H207.719V56.5938C207.723 55.9214 207.553 55.3982 207.207 55.0241C206.866 54.6501 206.388 54.4631 205.773 54.4631C205.361 54.4631 204.996 54.5507 204.679 54.7259C204.366 54.901 204.12 55.1567 203.94 55.4929C203.765 55.8243 203.675 56.2244 203.67 56.6932ZM218.097 63.2131C216.975 63.2131 216.009 62.9858 215.199 62.5312C214.394 62.072 213.774 61.4233 213.338 60.5852C212.903 59.7424 212.685 58.7457 212.685 57.5952C212.685 56.473 212.903 55.4882 213.338 54.6406C213.774 53.7931 214.387 53.1326 215.178 52.6591C215.973 52.1856 216.906 51.9489 217.976 51.9489C218.696 51.9489 219.366 52.0649 219.986 52.2969C220.611 52.5241 221.156 52.8674 221.62 53.3267C222.088 53.786 222.453 54.3636 222.713 55.0597C222.974 55.7509 223.104 56.5606 223.104 57.4886V58.3196H213.892V56.4446H220.256C220.256 56.009 220.161 55.6231 219.972 55.2869C219.783 54.9508 219.52 54.688 219.184 54.4986C218.852 54.3045 218.466 54.2074 218.026 54.2074C217.567 54.2074 217.159 54.3139 216.804 54.527C216.454 54.7353 216.179 55.017 215.98 55.3722C215.782 55.7225 215.68 56.1132 215.675 56.544V58.3267C215.675 58.8665 215.775 59.3329 215.973 59.7259C216.177 60.1188 216.463 60.4219 216.833 60.6349C217.202 60.848 217.64 60.9545 218.147 60.9545C218.483 60.9545 218.791 60.9072 219.07 60.8125C219.349 60.7178 219.588 60.5758 219.787 60.3864C219.986 60.197 220.138 59.965 220.242 59.6903L223.04 59.875C222.898 60.5473 222.607 61.1345 222.167 61.6364C221.731 62.1335 221.167 62.5218 220.476 62.8011C219.79 63.0758 218.997 63.2131 218.097 63.2131ZM230.05 63.2131C228.928 63.2131 227.962 62.9858 227.152 62.5312C226.347 62.072 225.727 61.4233 225.292 60.5852C224.856 59.7424 224.638 58.7457 224.638 57.5952C224.638 56.473 224.856 55.4882 225.292 54.6406C225.727 53.7931 226.34 53.1326 227.131 52.6591C227.926 52.1856 228.859 51.9489 229.929 51.9489C230.649 51.9489 231.319 52.0649 231.939 52.2969C232.564 52.5241 233.109 52.8674 233.573 53.3267C234.042 53.786 234.406 54.3636 234.667 55.0597C234.927 55.7509 235.057 56.5606 235.057 57.4886V58.3196H225.846V56.4446H232.209C232.209 56.009 232.114 55.6231 231.925 55.2869C231.736 54.9508 231.473 54.688 231.137 54.4986C230.805 54.3045 230.419 54.2074 229.979 54.2074C229.52 54.2074 229.113 54.3139 228.757 54.527C228.407 54.7353 228.132 55.017 227.934 55.3722C227.735 55.7225 227.633 56.1132 227.628 56.544V58.3267C227.628 58.8665 227.728 59.3329 227.926 59.7259C228.13 60.1188 228.417 60.4219 228.786 60.6349C229.155 60.848 229.593 60.9545 230.1 60.9545C230.436 60.9545 230.744 60.9072 231.023 60.8125C231.302 60.7178 231.542 60.5758 231.74 60.3864C231.939 60.197 232.091 59.965 232.195 59.6903L234.993 59.875C234.851 60.5473 234.56 61.1345 234.12 61.6364C233.684 62.1335 233.121 62.5218 232.429 62.8011C231.743 63.0758 230.95 63.2131 230.05 63.2131ZM240.057 48.4545V63H237.032V48.4545H240.057ZM255.057 52.6378C255 52.0649 254.757 51.6198 254.326 51.3026C253.895 50.9853 253.31 50.8267 252.571 50.8267C252.069 50.8267 251.646 50.8977 251.3 51.0398C250.954 51.1771 250.689 51.3688 250.505 51.6151C250.325 51.8613 250.235 52.1406 250.235 52.4531C250.225 52.7135 250.28 52.9408 250.398 53.1349C250.521 53.3291 250.689 53.4972 250.902 53.6392C251.115 53.7765 251.362 53.8973 251.641 54.0014C251.92 54.1009 252.219 54.1861 252.536 54.2571L253.843 54.5696C254.477 54.7116 255.06 54.901 255.59 55.1378C256.12 55.3745 256.579 55.6657 256.968 56.0114C257.356 56.357 257.657 56.7642 257.87 57.233C258.087 57.7017 258.199 58.2391 258.203 58.8452C258.199 59.7353 257.971 60.5071 257.522 61.1605C257.077 61.8092 256.433 62.3134 255.59 62.6733C254.752 63.0284 253.741 63.206 252.557 63.206C251.383 63.206 250.36 63.026 249.489 62.6662C248.623 62.3063 247.945 61.7737 247.458 61.0682C246.975 60.358 246.721 59.4796 246.698 58.4332H249.674C249.707 58.9209 249.846 59.3281 250.093 59.6548C250.344 59.9768 250.677 60.2206 251.094 60.3864C251.516 60.5473 251.991 60.6278 252.522 60.6278C253.042 60.6278 253.495 60.5521 253.878 60.4006C254.266 60.2491 254.567 60.0384 254.78 59.7685C254.993 59.4986 255.1 59.1884 255.1 58.8381C255.1 58.5114 255.003 58.2367 254.809 58.0142C254.619 57.7917 254.34 57.6023 253.971 57.446C253.606 57.2898 253.158 57.1477 252.628 57.0199L251.044 56.6222C249.818 56.3239 248.85 55.8575 248.14 55.223C247.429 54.5885 247.077 53.7339 247.081 52.6591C247.077 51.7784 247.311 51.009 247.784 50.3509C248.263 49.6927 248.918 49.179 249.752 48.8097C250.585 48.4403 251.532 48.2557 252.593 48.2557C253.672 48.2557 254.614 48.4403 255.419 48.8097C256.229 49.179 256.859 49.6927 257.309 50.3509C257.758 51.009 257.99 51.7713 258.005 52.6378H255.057ZM265.187 63.2131C264.065 63.2131 263.099 62.9858 262.289 62.5312C261.484 62.072 260.864 61.4233 260.428 60.5852C259.993 59.7424 259.775 58.7457 259.775 57.5952C259.775 56.473 259.993 55.4882 260.428 54.6406C260.864 53.7931 261.477 53.1326 262.268 52.6591C263.063 52.1856 263.996 51.9489 265.066 51.9489C265.786 51.9489 266.456 52.0649 267.076 52.2969C267.701 52.5241 268.246 52.8674 268.71 53.3267C269.178 53.786 269.543 54.3636 269.803 55.0597C270.064 55.7509 270.194 56.5606 270.194 57.4886V58.3196H260.982V56.4446H267.346C267.346 56.009 267.251 55.6231 267.062 55.2869C266.872 54.9508 266.61 54.688 266.273 54.4986C265.942 54.3045 265.556 54.2074 265.116 54.2074C264.656 54.2074 264.249 54.3139 263.894 54.527C263.544 54.7353 263.269 55.017 263.07 55.3722C262.871 55.7225 262.77 56.1132 262.765 56.544V58.3267C262.765 58.8665 262.864 59.3329 263.063 59.7259C263.267 60.1188 263.553 60.4219 263.923 60.6349C264.292 60.848 264.73 60.9545 265.237 60.9545C265.573 60.9545 265.88 60.9072 266.16 60.8125C266.439 60.7178 266.678 60.5758 266.877 60.3864C267.076 60.197 267.228 59.965 267.332 59.6903L270.13 59.875C269.988 60.5473 269.697 61.1345 269.256 61.6364C268.821 62.1335 268.257 62.5218 267.566 62.8011C266.879 63.0758 266.086 63.2131 265.187 63.2131ZM272.168 63V52.0909H275.102V53.9943H275.215C275.414 53.3172 275.748 52.8059 276.217 52.4602C276.685 52.1098 277.225 51.9347 277.836 51.9347C277.987 51.9347 278.151 51.9441 278.326 51.9631C278.501 51.982 278.655 52.008 278.788 52.0412V54.7259C278.646 54.6832 278.449 54.6454 278.198 54.6122C277.947 54.5791 277.718 54.5625 277.509 54.5625C277.064 54.5625 276.666 54.6596 276.316 54.8537C275.97 55.0431 275.696 55.3082 275.492 55.6491C275.293 55.9901 275.194 56.383 275.194 56.8281V63H272.168ZM290.854 52.0909L287.04 63H283.631L279.817 52.0909H283.013L285.279 59.8963H285.393L287.651 52.0909H290.854ZM292.403 63V52.0909H295.428V63H292.403ZM293.923 50.6847C293.473 50.6847 293.087 50.5355 292.765 50.2372C292.448 49.9342 292.289 49.572 292.289 49.1506C292.289 48.7339 292.448 48.3764 292.765 48.0781C293.087 47.7751 293.473 47.6236 293.923 47.6236C294.372 47.6236 294.756 47.7751 295.073 48.0781C295.395 48.3764 295.556 48.7339 295.556 49.1506C295.556 49.572 295.395 49.9342 295.073 50.2372C294.756 50.5355 294.372 50.6847 293.923 50.6847ZM302.781 63.2131C301.663 63.2131 300.702 62.9763 299.897 62.5028C299.097 62.0246 298.482 61.3617 298.051 60.5142C297.625 59.6667 297.412 58.6913 297.412 57.5881C297.412 56.4706 297.627 55.4905 298.058 54.6477C298.493 53.8002 299.111 53.1397 299.912 52.6662C300.712 52.188 301.663 51.9489 302.767 51.9489C303.718 51.9489 304.552 52.1217 305.267 52.4673C305.982 52.813 306.547 53.2983 306.964 53.9233C307.381 54.5483 307.61 55.2822 307.653 56.125H304.798C304.717 55.5805 304.504 55.1425 304.159 54.8111C303.818 54.4749 303.37 54.3068 302.816 54.3068C302.348 54.3068 301.938 54.4347 301.588 54.6903C301.242 54.9413 300.972 55.3082 300.778 55.7912C300.584 56.2741 300.487 56.8589 300.487 57.5455C300.487 58.2415 300.582 58.8333 300.771 59.321C300.965 59.8087 301.237 60.1804 301.588 60.4361C301.938 60.6918 302.348 60.8196 302.816 60.8196C303.162 60.8196 303.472 60.7486 303.747 60.6065C304.026 60.4645 304.256 60.2585 304.436 59.9886C304.62 59.714 304.741 59.3849 304.798 59.0014H307.653C307.606 59.8348 307.378 60.5687 306.971 61.2031C306.569 61.8329 306.012 62.3253 305.302 62.6804C304.592 63.0355 303.752 63.2131 302.781 63.2131ZM314.562 63.2131C313.44 63.2131 312.474 62.9858 311.664 62.5312C310.859 62.072 310.239 61.4233 309.803 60.5852C309.368 59.7424 309.15 58.7457 309.15 57.5952C309.15 56.473 309.368 55.4882 309.803 54.6406C310.239 53.7931 310.852 53.1326 311.643 52.6591C312.438 52.1856 313.371 51.9489 314.441 51.9489C315.161 51.9489 315.831 52.0649 316.451 52.2969C317.076 52.5241 317.621 52.8674 318.085 53.3267C318.553 53.786 318.918 54.3636 319.178 55.0597C319.439 55.7509 319.569 56.5606 319.569 57.4886V58.3196H310.357V56.4446H316.721C316.721 56.009 316.626 55.6231 316.437 55.2869C316.247 54.9508 315.985 54.688 315.648 54.4986C315.317 54.3045 314.931 54.2074 314.491 54.2074C314.031 54.2074 313.624 54.3139 313.269 54.527C312.919 54.7353 312.644 55.017 312.445 55.3722C312.246 55.7225 312.145 56.1132 312.14 56.544V58.3267C312.14 58.8665 312.239 59.3329 312.438 59.7259C312.642 60.1188 312.928 60.4219 313.298 60.6349C313.667 60.848 314.105 60.9545 314.612 60.9545C314.948 60.9545 315.255 60.9072 315.535 60.8125C315.814 60.7178 316.053 60.5758 316.252 60.3864C316.451 60.197 316.603 59.965 316.707 59.6903L319.505 59.875C319.363 60.5473 319.072 61.1345 318.631 61.6364C318.196 62.1335 317.632 62.5218 316.941 62.8011C316.254 63.0758 315.461 63.2131 314.562 63.2131ZM330.62 55.2017L327.85 55.3722C327.803 55.1354 327.701 54.9223 327.545 54.733C327.388 54.5388 327.183 54.3849 326.927 54.2713C326.676 54.1529 326.375 54.0938 326.025 54.0938C325.556 54.0938 325.161 54.1932 324.839 54.392C324.517 54.5862 324.356 54.8466 324.356 55.1733C324.356 55.4337 324.46 55.6539 324.668 55.8338C324.877 56.0137 325.234 56.1581 325.741 56.267L327.715 56.6648C328.776 56.8826 329.567 57.233 330.087 57.7159C330.608 58.1989 330.869 58.8333 330.869 59.6193C330.869 60.3343 330.658 60.9616 330.237 61.5014C329.82 62.0412 329.247 62.4626 328.518 62.7656C327.793 63.0639 326.958 63.2131 326.011 63.2131C324.567 63.2131 323.416 62.9124 322.559 62.3111C321.707 61.705 321.207 60.8812 321.06 59.8395L324.036 59.6832C324.126 60.1236 324.344 60.4598 324.69 60.6918C325.035 60.919 325.478 61.0327 326.018 61.0327C326.548 61.0327 326.974 60.9309 327.296 60.7273C327.623 60.5189 327.789 60.2514 327.793 59.9247C327.789 59.6501 327.673 59.4252 327.445 59.25C327.218 59.0701 326.868 58.9328 326.394 58.8381L324.505 58.4616C323.44 58.2486 322.647 57.8793 322.126 57.3537C321.61 56.8281 321.352 56.1581 321.352 55.3438C321.352 54.643 321.541 54.0393 321.92 53.5327C322.303 53.026 322.841 52.6354 323.532 52.3608C324.228 52.0862 325.042 51.9489 325.975 51.9489C327.353 51.9489 328.437 52.2401 329.228 52.8224C330.023 53.4048 330.487 54.1979 330.62 55.2017Z" fill="url(#paint1_linear_411_514)"/>
<defs>
<linearGradient id="paint0_linear_411_514" x1="196" y1="11.5" x2="196" y2="40.5" gradientUnits="userSpaceOnUse">
<stop stop-color="#EB1D26"/>
<stop offset="0.5"/>
<stop offset="1" stop-color="#02A653"/>
</linearGradient>
<linearGradient id="paint1_linear_411_514" x1="196" y1="44" x2="196" y2="68" gradientUnits="userSpaceOnUse">
<stop stop-color="#EB1D26"/>
<stop offset="0.5"/>
<stop offset="1" stop-color="#02A653"/>
</linearGradient>
</defs>
</svg>
